<?xml version="1.0" encoding="UTF-8" standalone="no"?>
<!DOCTYPE svg PUBLIC "-//W3C//DTD SVG 1.1//EN"
 "http://www.w3.org/Graphics/SVG/1.1/DTD/svg11.dtd">
<!-- Generated by graphviz version 2.40.1 (20161225.0304)
 -->
<!-- Title: dependencies Pages: 1 -->
<svg width="3163pt" height="284pt"
 viewBox="0.00 0.00 3163.00 284.00" xmlns="http://www.w3.org/2000/svg" xmlns:xlink="http://www.w3.org/1999/xlink">
<g id="graph0" class="graph" transform="scale(1 1) rotate(0) translate(4 280)">
<title>dependencies</title>
<polygon fill="#ffffff" stroke="transparent" points="-4,4 -4,-280 3159,-280 3159,4 -4,4"/>
<text text-anchor="start" x="1556.5091" y="-42.4" font-family="sans-serif" font-weight="bold" font-size="14.00" fill="#000000">Legend</text>
<polygon fill="#ffffb3" stroke="transparent" points="1343.5,-10 1343.5,-30 1363.5,-30 1363.5,-10 1343.5,-10"/>
<text text-anchor="start" x="1367.129" y="-15.4" font-family="sans-serif" font-size="14.00" fill="#000000"> &#160;Declarations</text>
<polygon fill="#8dd3c7" stroke="transparent" points="1456.5,-10 1456.5,-30 1476.5,-30 1476.5,-10 1456.5,-10"/>
<text text-anchor="start" x="1480.2251" y="-15.4" font-family="sans-serif" font-size="14.00" fill="#000000"> &#160;Module</text>
<polygon fill="#80b1d3" stroke="transparent" points="1542.5,-10 1542.5,-30 1562.5,-30 1562.5,-10 1542.5,-10"/>
<text text-anchor="start" x="1566.2812" y="-15.4" font-family="sans-serif" font-size="14.00" fill="#000000"> &#160;Bootstrap</text>
<polygon fill="#fdb462" stroke="transparent" points="1639.5,-10 1639.5,-30 1659.5,-30 1659.5,-10 1639.5,-10"/>
<text text-anchor="start" x="1663.1732" y="-15.4" font-family="sans-serif" font-size="14.00" fill="#000000"> &#160;Providers</text>
<polygon fill="#fb8072" stroke="transparent" points="1735.5,-10 1735.5,-30 1755.5,-30 1755.5,-10 1735.5,-10"/>
<text text-anchor="start" x="1759.2258" y="-15.4" font-family="sans-serif" font-size="14.00" fill="#000000"> &#160;Exports</text>
<g id="clust1" class="cluster">
<title>cluster_AppModule</title>
<polygon fill="none" stroke="#000000" stroke-dasharray="1,5" points="8,-70 8,-268 3147,-268 3147,-70 8,-70"/>
</g>
<g id="clust2" class="cluster">
<title>cluster_AppModule_declarations</title>
<polygon fill="none" stroke="#000000" points="212,-78 212,-130 3139,-130 3139,-78 212,-78"/>
</g>
<g id="clust25" class="cluster">
<title>cluster_AppModule_bootstrap</title>
<polygon fill="none" stroke="#000000" points="1524,-208 1524,-260 1648,-260 1648,-208 1524,-208"/>
</g>
<g id="clust26" class="cluster">
<title>cluster_AppModule_providers</title>
<polygon fill="none" stroke="#000000" points="16,-78 16,-130 204,-130 204,-78 16,-78"/>
</g>
<!-- AboutComponent -->
<g id="node1" class="node">
<title>AboutComponent</title>
<polygon fill="#ffffb3" stroke="#000000" points="3131.3301,-122 3014.6699,-122 3014.6699,-86 3131.3301,-86 3131.3301,-122"/>
<text text-anchor="middle" x="3073" y="-99.8" font-family="Times,serif" font-size="14.00" fill="#000000">AboutComponent</text>
</g>
<!-- AppModule -->
<g id="node21" class="node">
<title>AppModule</title>
<polygon fill="#8dd3c7" stroke="#000000" points="1627.6571,-187 1624.6571,-191 1603.6571,-191 1600.6571,-187 1544.3429,-187 1544.3429,-151 1627.6571,-151 1627.6571,-187"/>
<text text-anchor="middle" x="1586" y="-164.8" font-family="Times,serif" font-size="14.00" fill="#000000">AppModule</text>
</g>
<!-- AboutComponent&#45;&gt;AppModule -->
<g id="edge1" class="edge">
<title>AboutComponent&#45;&gt;AppModule</title>
<path fill="none" stroke="#000000" d="M3073,-122.1532C3073,-145.7566 3073,-184 3073,-184 3073,-184 1637.7145,-184 1637.7145,-184"/>
<polygon fill="#000000" stroke="#000000" points="1637.7145,-180.5001 1627.7145,-184 1637.7144,-187.5001 1637.7145,-180.5001"/>
</g>
<!-- AppComponent -->
<g id="node2" class="node">
<title>AppComponent</title>
<polygon fill="#ffffb3" stroke="#000000" points="2996.9399,-122 2891.0601,-122 2891.0601,-86 2996.9399,-86 2996.9399,-122"/>
<text text-anchor="middle" x="2944" y="-99.8" font-family="Times,serif" font-size="14.00" fill="#000000">AppComponent</text>
</g>
<!-- AppComponent&#45;&gt;AppModule -->
<g id="edge2" class="edge">
<title>AppComponent&#45;&gt;AppModule</title>
<path fill="none" stroke="#000000" d="M2944,-122.2479C2944,-145.0179 2944,-181 2944,-181 2944,-181 1637.7568,-181 1637.7568,-181"/>
<polygon fill="#000000" stroke="#000000" points="1637.7568,-177.5001 1627.7568,-181 1637.7568,-184.5001 1637.7568,-177.5001"/>
</g>
<!-- BlogComponent -->
<g id="node3" class="node">
<title>BlogComponent</title>
<polygon fill="#ffffb3" stroke="#000000" points="2873.0605,-122 2764.9395,-122 2764.9395,-86 2873.0605,-86 2873.0605,-122"/>
<text text-anchor="middle" x="2819" y="-99.8" font-family="Times,serif" font-size="14.00" fill="#000000">BlogComponent</text>
</g>
<!-- BlogComponent&#45;&gt;AppModule -->
<g id="edge3" class="edge">
<title>BlogComponent&#45;&gt;AppModule</title>
<path fill="none" stroke="#000000" d="M2819,-122.2921C2819,-144.2057 2819,-178 2819,-178 2819,-178 1637.7306,-178 1637.7306,-178"/>
<polygon fill="#000000" stroke="#000000" points="1637.7307,-174.5001 1627.7306,-178 1637.7306,-181.5001 1637.7307,-174.5001"/>
</g>
<!-- ChatComponent -->
<g id="node4" class="node">
<title>ChatComponent</title>
<polygon fill="#ffffb3" stroke="#000000" points="2746.7744,-122 2639.2256,-122 2639.2256,-86 2746.7744,-86 2746.7744,-122"/>
<text text-anchor="middle" x="2693" y="-99.8" font-family="Times,serif" font-size="14.00" fill="#000000">ChatComponent</text>
</g>
<!-- ChatComponent&#45;&gt;AppModule -->
<g id="edge4" class="edge">
<title>ChatComponent&#45;&gt;AppModule</title>
<path fill="none" stroke="#000000" d="M2693,-122.0267C2693,-142.7672 2693,-174 2693,-174 2693,-174 1637.709,-174 1637.709,-174"/>
<polygon fill="#000000" stroke="#000000" points="1637.7091,-170.5001 1627.709,-174 1637.709,-177.5001 1637.7091,-170.5001"/>
</g>
<!-- CvEndComponent -->
<g id="node5" class="node">
<title>CvEndComponent</title>
<polygon fill="#ffffb3" stroke="#000000" points="2621.2218,-122 2500.7782,-122 2500.7782,-86 2621.2218,-86 2621.2218,-122"/>
<text text-anchor="middle" x="2561" y="-99.8" font-family="Times,serif" font-size="14.00" fill="#000000">CvEndComponent</text>
</g>
<!-- CvEndComponent&#45;&gt;AppModule -->
<g id="edge5" class="edge">
<title>CvEndComponent&#45;&gt;AppModule</title>
<path fill="none" stroke="#000000" d="M2561,-122.308C2561,-142.1455 2561,-171 2561,-171 2561,-171 1637.8945,-171 1637.8945,-171"/>
<polygon fill="#000000" stroke="#000000" points="1637.8946,-167.5001 1627.8945,-171 1637.8945,-174.5001 1637.8946,-167.5001"/>
</g>
<!-- CvExperienceComponent -->
<g id="node6" class="node">
<title>CvExperienceComponent</title>
<polygon fill="#ffffb3" stroke="#000000" points="2483.1316,-122 2322.8684,-122 2322.8684,-86 2483.1316,-86 2483.1316,-122"/>
<text text-anchor="middle" x="2403" y="-99.8" font-family="Times,serif" font-size="14.00" fill="#000000">CvExperienceComponent</text>
</g>
<!-- CvExperienceComponent&#45;&gt;AppModule -->
<g id="edge6" class="edge">
<title>CvExperienceComponent&#45;&gt;AppModule</title>
<path fill="none" stroke="#000000" d="M2403,-122.1686C2403,-141.0898 2403,-168 2403,-168 2403,-168 1637.9213,-168 1637.9213,-168"/>
<polygon fill="#000000" stroke="#000000" points="1637.9213,-164.5001 1627.9213,-168 1637.9213,-171.5001 1637.9213,-164.5001"/>
</g>
<!-- CvGoalsComponent -->
<g id="node7" class="node">
<title>CvGoalsComponent</title>
<polygon fill="#ffffb3" stroke="#000000" points="2305.3258,-122 2174.6742,-122 2174.6742,-86 2305.3258,-86 2305.3258,-122"/>
<text text-anchor="middle" x="2240" y="-99.8" font-family="Times,serif" font-size="14.00" fill="#000000">CvGoalsComponent</text>
</g>
<!-- CvGoalsComponent&#45;&gt;AppModule -->
<g id="edge7" class="edge">
<title>CvGoalsComponent&#45;&gt;AppModule</title>
<path fill="none" stroke="#000000" d="M2240,-122.302C2240,-140.2699 2240,-165 2240,-165 2240,-165 1637.9055,-165 1637.9055,-165"/>
<polygon fill="#000000" stroke="#000000" points="1637.9056,-161.5001 1627.9055,-165 1637.9055,-168.5001 1637.9056,-161.5001"/>
</g>
<!-- CvProgrammingComponent -->
<g id="node8" class="node">
<title>CvProgrammingComponent</title>
<polygon fill="#ffffb3" stroke="#000000" points="2157.1595,-122 1982.8405,-122 1982.8405,-86 2157.1595,-86 2157.1595,-122"/>
<text text-anchor="middle" x="2070" y="-99.8" font-family="Times,serif" font-size="14.00" fill="#000000">CvProgrammingComponent</text>
</g>
<!-- CvProgrammingComponent&#45;&gt;AppModule -->
<g id="edge8" class="edge">
<title>CvProgrammingComponent&#45;&gt;AppModule</title>
<path fill="none" stroke="#000000" d="M2070,-122.0352C2070,-138.7344 2070,-161 2070,-161 2070,-161 1637.6845,-161 1637.6845,-161"/>
<polygon fill="#000000" stroke="#000000" points="1637.6845,-157.5001 1627.6845,-161 1637.6844,-164.5001 1637.6845,-157.5001"/>
</g>
<!-- CvSchoolComponent -->
<g id="node9" class="node">
<title>CvSchoolComponent</title>
<polygon fill="#ffffb3" stroke="#000000" points="1964.0575,-122 1827.9425,-122 1827.9425,-86 1964.0575,-86 1964.0575,-122"/>
<text text-anchor="middle" x="1896" y="-99.8" font-family="Times,serif" font-size="14.00" fill="#000000">CvSchoolComponent</text>
</g>
<!-- CvSchoolComponent&#45;&gt;AppModule -->
<g id="edge9" class="edge">
<title>CvSchoolComponent&#45;&gt;AppModule</title>
<path fill="none" stroke="#000000" d="M1896,-122.2819C1896,-137.9478 1896,-158 1896,-158 1896,-158 1637.808,-158 1637.808,-158"/>
<polygon fill="#000000" stroke="#000000" points="1637.808,-154.5001 1627.808,-158 1637.8079,-161.5001 1637.808,-154.5001"/>
</g>
<!-- CvStartComponent -->
<g id="node10" class="node">
<title>CvStartComponent</title>
<polygon fill="#ffffb3" stroke="#000000" points="1810.108,-122 1685.892,-122 1685.892,-86 1810.108,-86 1810.108,-122"/>
<text text-anchor="middle" x="1748" y="-99.8" font-family="Times,serif" font-size="14.00" fill="#000000">CvStartComponent</text>
</g>
<!-- CvStartComponent&#45;&gt;AppModule -->
<g id="edge10" class="edge">
<title>CvStartComponent&#45;&gt;AppModule</title>
<path fill="none" stroke="#000000" d="M1748,-122.1243C1748,-136.7832 1748,-155 1748,-155 1748,-155 1637.719,-155 1637.719,-155"/>
<polygon fill="#000000" stroke="#000000" points="1637.7191,-151.5001 1627.719,-155 1637.719,-158.5001 1637.7191,-151.5001"/>
</g>
<!-- CvTechnologyComponent -->
<g id="node11" class="node">
<title>CvTechnologyComponent</title>
<polygon fill="#ffffb3" stroke="#000000" points="1668.042,-122 1503.958,-122 1503.958,-86 1668.042,-86 1668.042,-122"/>
<text text-anchor="middle" x="1586" y="-99.8" font-family="Times,serif" font-size="14.00" fill="#000000">CvTechnologyComponent</text>
</g>
<!-- CvTechnologyComponent&#45;&gt;AppModule -->
<g id="edge11" class="edge">
<title>CvTechnologyComponent&#45;&gt;AppModule</title>
<path fill="none" stroke="#000000" d="M1586,-122.1061C1586,-122.1061 1586,-140.991 1586,-140.991"/>
<polygon fill="#000000" stroke="#000000" points="1582.5001,-140.9909 1586,-150.991 1589.5001,-140.991 1582.5001,-140.9909"/>
</g>
<!-- FooterComponent -->
<g id="node12" class="node">
<title>FooterComponent</title>
<polygon fill="#ffffb3" stroke="#000000" points="1485.8809,-122 1368.1191,-122 1368.1191,-86 1485.8809,-86 1485.8809,-122"/>
<text text-anchor="middle" x="1427" y="-99.8" font-family="Times,serif" font-size="14.00" fill="#000000">FooterComponent</text>
</g>
<!-- FooterComponent&#45;&gt;AppModule -->
<g id="edge12" class="edge">
<title>FooterComponent&#45;&gt;AppModule</title>
<path fill="none" stroke="#000000" d="M1427,-122.1243C1427,-136.7832 1427,-155 1427,-155 1427,-155 1534.2246,-155 1534.2246,-155"/>
<polygon fill="#000000" stroke="#000000" points="1534.2247,-158.5001 1544.2246,-155 1534.2246,-151.5001 1534.2247,-158.5001"/>
</g>
<!-- HomeComponent -->
<g id="node13" class="node">
<title>HomeComponent</title>
<polygon fill="#ffffb3" stroke="#000000" points="1349.5451,-122 1234.4549,-122 1234.4549,-86 1349.5451,-86 1349.5451,-122"/>
<text text-anchor="middle" x="1292" y="-99.8" font-family="Times,serif" font-size="14.00" fill="#000000">HomeComponent</text>
</g>
<!-- HomeComponent&#45;&gt;AppModule -->
<g id="edge13" class="edge">
<title>HomeComponent&#45;&gt;AppModule</title>
<path fill="none" stroke="#000000" d="M1292,-122.2819C1292,-137.9478 1292,-158 1292,-158 1292,-158 1534.1892,-158 1534.1892,-158"/>
<polygon fill="#000000" stroke="#000000" points="1534.1892,-161.5001 1544.1892,-158 1534.1892,-154.5001 1534.1892,-161.5001"/>
</g>
<!-- InteractiveCvComponent -->
<g id="node14" class="node">
<title>InteractiveCvComponent</title>
<polygon fill="#ffffb3" stroke="#000000" points="1215.5211,-122 1058.4789,-122 1058.4789,-86 1215.5211,-86 1215.5211,-122"/>
<text text-anchor="middle" x="1137" y="-99.8" font-family="Times,serif" font-size="14.00" fill="#000000">InteractiveCvComponent</text>
</g>
<!-- InteractiveCvComponent&#45;&gt;AppModule -->
<g id="edge14" class="edge">
<title>InteractiveCvComponent&#45;&gt;AppModule</title>
<path fill="none" stroke="#000000" d="M1137,-122.0352C1137,-138.7344 1137,-161 1137,-161 1137,-161 1534.1624,-161 1534.1624,-161"/>
<polygon fill="#000000" stroke="#000000" points="1534.1624,-164.5001 1544.1624,-161 1534.1623,-157.5001 1534.1624,-164.5001"/>
</g>
<!-- ModalComponent -->
<g id="node15" class="node">
<title>ModalComponent</title>
<polygon fill="#ffffb3" stroke="#000000" points="1039.8823,-122 922.1177,-122 922.1177,-86 1039.8823,-86 1039.8823,-122"/>
<text text-anchor="middle" x="981" y="-99.8" font-family="Times,serif" font-size="14.00" fill="#000000">ModalComponent</text>
</g>
<!-- ModalComponent&#45;&gt;AppModule -->
<g id="edge15" class="edge">
<title>ModalComponent&#45;&gt;AppModule</title>
<path fill="none" stroke="#000000" d="M981,-122.302C981,-140.2699 981,-165 981,-165 981,-165 1533.9379,-165 1533.9379,-165"/>
<polygon fill="#000000" stroke="#000000" points="1533.9379,-168.5001 1543.9379,-165 1533.9379,-161.5001 1533.9379,-168.5001"/>
</g>
<!-- NavigationComponent -->
<g id="node16" class="node">
<title>NavigationComponent</title>
<polygon fill="#ffffb3" stroke="#000000" points="903.5407,-122 760.4593,-122 760.4593,-86 903.5407,-86 903.5407,-122"/>
<text text-anchor="middle" x="832" y="-99.8" font-family="Times,serif" font-size="14.00" fill="#000000">NavigationComponent</text>
</g>
<!-- NavigationComponent&#45;&gt;AppModule -->
<g id="edge16" class="edge">
<title>NavigationComponent&#45;&gt;AppModule</title>
<path fill="none" stroke="#000000" d="M832,-122.1686C832,-141.0898 832,-168 832,-168 832,-168 1534.1172,-168 1534.1172,-168"/>
<polygon fill="#000000" stroke="#000000" points="1534.1173,-171.5001 1544.1172,-168 1534.1172,-164.5001 1534.1173,-171.5001"/>
</g>
<!-- PicturesComponent -->
<g id="node17" class="node">
<title>PicturesComponent</title>
<polygon fill="#ffffb3" stroke="#000000" points="742.4313,-122 615.5687,-122 615.5687,-86 742.4313,-86 742.4313,-122"/>
<text text-anchor="middle" x="679" y="-99.8" font-family="Times,serif" font-size="14.00" fill="#000000">PicturesComponent</text>
</g>
<!-- PicturesComponent&#45;&gt;AppModule -->
<g id="edge17" class="edge">
<title>PicturesComponent&#45;&gt;AppModule</title>
<path fill="none" stroke="#000000" d="M679,-122.308C679,-142.1455 679,-171 679,-171 679,-171 1534.0726,-171 1534.0726,-171"/>
<polygon fill="#000000" stroke="#000000" points="1534.0726,-174.5001 1544.0726,-171 1534.0725,-167.5001 1534.0726,-174.5001"/>
</g>
<!-- SetsComponent -->
<g id="node18" class="node">
<title>SetsComponent</title>
<polygon fill="#ffffb3" stroke="#000000" points="597.1653,-122 492.8347,-122 492.8347,-86 597.1653,-86 597.1653,-122"/>
<text text-anchor="middle" x="545" y="-99.8" font-family="Times,serif" font-size="14.00" fill="#000000">SetsComponent</text>
</g>
<!-- SetsComponent&#45;&gt;AppModule -->
<g id="edge18" class="edge">
<title>SetsComponent&#45;&gt;AppModule</title>
<path fill="none" stroke="#000000" d="M545,-122.0267C545,-142.7672 545,-174 545,-174 545,-174 1534.2263,-174 1534.2263,-174"/>
<polygon fill="#000000" stroke="#000000" points="1534.2263,-177.5001 1544.2263,-174 1534.2262,-170.5001 1534.2263,-177.5001"/>
</g>
<!-- TabBarComponent -->
<g id="node19" class="node">
<title>TabBarComponent</title>
<polygon fill="#ffffb3" stroke="#000000" points="474.8118,-122 351.1882,-122 351.1882,-86 474.8118,-86 474.8118,-122"/>
<text text-anchor="middle" x="413" y="-99.8" font-family="Times,serif" font-size="14.00" fill="#000000">TabBarComponent</text>
</g>
<!-- TabBarComponent&#45;&gt;AppModule -->
<g id="edge19" class="edge">
<title>TabBarComponent&#45;&gt;AppModule</title>
<path fill="none" stroke="#000000" d="M413,-122.2921C413,-144.2057 413,-178 413,-178 413,-178 1534.2523,-178 1534.2523,-178"/>
<polygon fill="#000000" stroke="#000000" points="1534.2523,-181.5001 1544.2523,-178 1534.2523,-174.5001 1534.2523,-181.5001"/>
</g>
<!-- WorkComponent -->
<g id="node20" class="node">
<title>WorkComponent</title>
<polygon fill="#ffffb3" stroke="#000000" points="333.7078,-122 220.2922,-122 220.2922,-86 333.7078,-86 333.7078,-122"/>
<text text-anchor="middle" x="277" y="-99.8" font-family="Times,serif" font-size="14.00" fill="#000000">WorkComponent</text>
</g>
<!-- WorkComponent&#45;&gt;AppModule -->
<g id="edge20" class="edge">
<title>WorkComponent&#45;&gt;AppModule</title>
<path fill="none" stroke="#000000" d="M277,-122.2479C277,-145.0179 277,-181 277,-181 277,-181 1534.2968,-181 1534.2968,-181"/>
<polygon fill="#000000" stroke="#000000" points="1534.2968,-184.5001 1544.2968,-181 1534.2967,-177.5001 1534.2968,-184.5001"/>
</g>
<!-- AppComponent  -->
<g id="node22" class="node">
<title>AppComponent </title>
<polygon fill="#80b1d3" stroke="#000000" points="1640.439,-252 1531.561,-252 1531.561,-216 1640.439,-216 1640.439,-252"/>
<text text-anchor="middle" x="1586" y="-229.8" font-family="Times,serif" font-size="14.00" fill="#000000">AppComponent </text>
</g>
<!-- AppModule&#45;&gt;AppComponent  -->
<g id="edge21" class="edge">
<title>AppModule&#45;&gt;AppComponent </title>
<path fill="none" stroke="#000000" stroke-dasharray="1,5" d="M1586,-187.1061C1586,-187.1061 1586,-205.991 1586,-205.991"/>
<polygon fill="#000000" stroke="#000000" points="1582.5001,-205.9909 1586,-215.991 1589.5001,-205.991 1582.5001,-205.9909"/>
</g>
<!-- DialogFlowService -->
<g id="node23" class="node">
<title>DialogFlowService</title>
<ellipse fill="#fdb462" stroke="#000000" cx="110" cy="-104" rx="86.2522" ry="18"/>
<text text-anchor="middle" x="110" y="-99.8" font-family="Times,serif" font-size="14.00" fill="#000000">DialogFlowService</text>
</g>
<!-- DialogFlowService&#45;&gt;AppModule -->
<g id="edge22" class="edge">
<title>DialogFlowService&#45;&gt;AppModule</title>
<path fill="none" stroke="#000000" d="M110,-122.1532C110,-145.7566 110,-184 110,-184 110,-184 1534.2038,-184 1534.2038,-184"/>
<polygon fill="#000000" stroke="#000000" points="1534.2038,-187.5001 1544.2038,-184 1534.2037,-180.5001 1534.2038,-187.5001"/>
</g>
</g>
</svg>
