<?xml version="1.0" encoding="UTF-8" standalone="no"?>
<!DOCTYPE svg PUBLIC "-//W3C//DTD SVG 1.1//EN"
 "http://www.w3.org/Graphics/SVG/1.1/DTD/svg11.dtd">
<!-- Generated by graphviz version 2.40.1 (20161225.0304)
 -->
<!-- Title: dependencies Pages: 1 -->
<svg width="3284pt" height="284pt"
 viewBox="0.00 0.00 3284.00 284.00" xmlns="http://www.w3.org/2000/svg" xmlns:xlink="http://www.w3.org/1999/xlink">
<g id="graph0" class="graph" transform="scale(1 1) rotate(0) translate(4 280)">
<title>dependencies</title>
<polygon fill="#ffffff" stroke="transparent" points="-4,4 -4,-280 3280,-280 3280,4 -4,4"/>
<text text-anchor="start" x="1617.0091" y="-42.4" font-family="sans-serif" font-weight="bold" font-size="14.00" fill="#000000">Legend</text>
<polygon fill="#ffffb3" stroke="transparent" points="1404,-10 1404,-30 1424,-30 1424,-10 1404,-10"/>
<text text-anchor="start" x="1427.629" y="-15.4" font-family="sans-serif" font-size="14.00" fill="#000000"> &#160;Declarations</text>
<polygon fill="#8dd3c7" stroke="transparent" points="1517,-10 1517,-30 1537,-30 1537,-10 1517,-10"/>
<text text-anchor="start" x="1540.7251" y="-15.4" font-family="sans-serif" font-size="14.00" fill="#000000"> &#160;Module</text>
<polygon fill="#80b1d3" stroke="transparent" points="1603,-10 1603,-30 1623,-30 1623,-10 1603,-10"/>
<text text-anchor="start" x="1626.7812" y="-15.4" font-family="sans-serif" font-size="14.00" fill="#000000"> &#160;Bootstrap</text>
<polygon fill="#fdb462" stroke="transparent" points="1700,-10 1700,-30 1720,-30 1720,-10 1700,-10"/>
<text text-anchor="start" x="1723.6732" y="-15.4" font-family="sans-serif" font-size="14.00" fill="#000000"> &#160;Providers</text>
<polygon fill="#fb8072" stroke="transparent" points="1796,-10 1796,-30 1816,-30 1816,-10 1796,-10"/>
<text text-anchor="start" x="1819.7258" y="-15.4" font-family="sans-serif" font-size="14.00" fill="#000000"> &#160;Exports</text>
<g id="clust1" class="cluster">
<title>cluster_AppModule</title>
<polygon fill="none" stroke="#000000" stroke-dasharray="1,5" points="8,-70 8,-268 3268,-268 3268,-70 8,-70"/>
</g>
<g id="clust2" class="cluster">
<title>cluster_AppModule_declarations</title>
<polygon fill="none" stroke="#000000" points="212,-78 212,-130 3260,-130 3260,-78 212,-78"/>
</g>
<g id="clust26" class="cluster">
<title>cluster_AppModule_bootstrap</title>
<polygon fill="none" stroke="#000000" points="1569,-208 1569,-260 1693,-260 1693,-208 1569,-208"/>
</g>
<g id="clust27" class="cluster">
<title>cluster_AppModule_providers</title>
<polygon fill="none" stroke="#000000" points="16,-78 16,-130 204,-130 204,-78 16,-78"/>
</g>
<!-- AboutComponent -->
<g id="node1" class="node">
<title>AboutComponent</title>
<polygon fill="#ffffb3" stroke="#000000" points="3252.3301,-122 3135.6699,-122 3135.6699,-86 3252.3301,-86 3252.3301,-122"/>
<text text-anchor="middle" x="3194" y="-99.8" font-family="Times,serif" font-size="14.00" fill="#000000">AboutComponent</text>
</g>
<!-- AppModule -->
<g id="node22" class="node">
<title>AppModule</title>
<polygon fill="#8dd3c7" stroke="#000000" points="1672.6571,-187 1669.6571,-191 1648.6571,-191 1645.6571,-187 1589.3429,-187 1589.3429,-151 1672.6571,-151 1672.6571,-187"/>
<text text-anchor="middle" x="1631" y="-164.8" font-family="Times,serif" font-size="14.00" fill="#000000">AppModule</text>
</g>
<!-- AboutComponent&#45;&gt;AppModule -->
<g id="edge1" class="edge">
<title>AboutComponent&#45;&gt;AppModule</title>
<path fill="none" stroke="#000000" d="M3194,-122.1532C3194,-145.7566 3194,-184 3194,-184 3194,-184 1682.8065,-184 1682.8065,-184"/>
<polygon fill="#000000" stroke="#000000" points="1682.8065,-180.5001 1672.8065,-184 1682.8064,-187.5001 1682.8065,-180.5001"/>
</g>
<!-- AppComponent -->
<g id="node2" class="node">
<title>AppComponent</title>
<polygon fill="#ffffb3" stroke="#000000" points="3117.9399,-122 3012.0601,-122 3012.0601,-86 3117.9399,-86 3117.9399,-122"/>
<text text-anchor="middle" x="3065" y="-99.8" font-family="Times,serif" font-size="14.00" fill="#000000">AppComponent</text>
</g>
<!-- AppComponent&#45;&gt;AppModule -->
<g id="edge2" class="edge">
<title>AppComponent&#45;&gt;AppModule</title>
<path fill="none" stroke="#000000" d="M3065,-122.2479C3065,-145.0179 3065,-181 3065,-181 3065,-181 1682.7545,-181 1682.7545,-181"/>
<polygon fill="#000000" stroke="#000000" points="1682.7545,-177.5001 1672.7545,-181 1682.7545,-184.5001 1682.7545,-177.5001"/>
</g>
<!-- BlogComponent -->
<g id="node3" class="node">
<title>BlogComponent</title>
<polygon fill="#ffffb3" stroke="#000000" points="2994.0605,-122 2885.9395,-122 2885.9395,-86 2994.0605,-86 2994.0605,-122"/>
<text text-anchor="middle" x="2940" y="-99.8" font-family="Times,serif" font-size="14.00" fill="#000000">BlogComponent</text>
</g>
<!-- BlogComponent&#45;&gt;AppModule -->
<g id="edge3" class="edge">
<title>BlogComponent&#45;&gt;AppModule</title>
<path fill="none" stroke="#000000" d="M2940,-122.2921C2940,-144.2057 2940,-178 2940,-178 2940,-178 1682.7032,-178 1682.7032,-178"/>
<polygon fill="#000000" stroke="#000000" points="1682.7033,-174.5001 1672.7032,-178 1682.7032,-181.5001 1682.7033,-174.5001"/>
</g>
<!-- ChatComponent -->
<g id="node4" class="node">
<title>ChatComponent</title>
<polygon fill="#ffffb3" stroke="#000000" points="2867.7744,-122 2760.2256,-122 2760.2256,-86 2867.7744,-86 2867.7744,-122"/>
<text text-anchor="middle" x="2814" y="-99.8" font-family="Times,serif" font-size="14.00" fill="#000000">ChatComponent</text>
</g>
<!-- ChatComponent&#45;&gt;AppModule -->
<g id="edge4" class="edge">
<title>ChatComponent&#45;&gt;AppModule</title>
<path fill="none" stroke="#000000" d="M2814,-122.0267C2814,-142.7672 2814,-174 2814,-174 2814,-174 1682.7561,-174 1682.7561,-174"/>
<polygon fill="#000000" stroke="#000000" points="1682.7561,-170.5001 1672.7561,-174 1682.7561,-177.5001 1682.7561,-170.5001"/>
</g>
<!-- CvEndComponent -->
<g id="node5" class="node">
<title>CvEndComponent</title>
<polygon fill="#ffffb3" stroke="#000000" points="2742.2218,-122 2621.7782,-122 2621.7782,-86 2742.2218,-86 2742.2218,-122"/>
<text text-anchor="middle" x="2682" y="-99.8" font-family="Times,serif" font-size="14.00" fill="#000000">CvEndComponent</text>
</g>
<!-- CvEndComponent&#45;&gt;AppModule -->
<g id="edge5" class="edge">
<title>CvEndComponent&#45;&gt;AppModule</title>
<path fill="none" stroke="#000000" d="M2682,-122.308C2682,-142.1455 2682,-171 2682,-171 2682,-171 1682.849,-171 1682.849,-171"/>
<polygon fill="#000000" stroke="#000000" points="1682.849,-167.5001 1672.849,-171 1682.849,-174.5001 1682.849,-167.5001"/>
</g>
<!-- CvExperienceComponent -->
<g id="node6" class="node">
<title>CvExperienceComponent</title>
<polygon fill="#ffffb3" stroke="#000000" points="2604.1316,-122 2443.8684,-122 2443.8684,-86 2604.1316,-86 2604.1316,-122"/>
<text text-anchor="middle" x="2524" y="-99.8" font-family="Times,serif" font-size="14.00" fill="#000000">CvExperienceComponent</text>
</g>
<!-- CvExperienceComponent&#45;&gt;AppModule -->
<g id="edge6" class="edge">
<title>CvExperienceComponent&#45;&gt;AppModule</title>
<path fill="none" stroke="#000000" d="M2524,-122.1686C2524,-141.0898 2524,-168 2524,-168 2524,-168 1682.8735,-168 1682.8735,-168"/>
<polygon fill="#000000" stroke="#000000" points="1682.8735,-164.5001 1672.8735,-168 1682.8735,-171.5001 1682.8735,-164.5001"/>
</g>
<!-- CvGoalsComponent -->
<g id="node7" class="node">
<title>CvGoalsComponent</title>
<polygon fill="#ffffb3" stroke="#000000" points="2426.3258,-122 2295.6742,-122 2295.6742,-86 2426.3258,-86 2426.3258,-122"/>
<text text-anchor="middle" x="2361" y="-99.8" font-family="Times,serif" font-size="14.00" fill="#000000">CvGoalsComponent</text>
</g>
<!-- CvGoalsComponent&#45;&gt;AppModule -->
<g id="edge7" class="edge">
<title>CvGoalsComponent&#45;&gt;AppModule</title>
<path fill="none" stroke="#000000" d="M2361,-122.302C2361,-140.2699 2361,-165 2361,-165 2361,-165 1682.8699,-165 1682.8699,-165"/>
<polygon fill="#000000" stroke="#000000" points="1682.8699,-161.5001 1672.8699,-165 1682.8699,-168.5001 1682.8699,-161.5001"/>
</g>
<!-- CvProgrammingComponent -->
<g id="node8" class="node">
<title>CvProgrammingComponent</title>
<polygon fill="#ffffb3" stroke="#000000" points="2278.1595,-122 2103.8405,-122 2103.8405,-86 2278.1595,-86 2278.1595,-122"/>
<text text-anchor="middle" x="2191" y="-99.8" font-family="Times,serif" font-size="14.00" fill="#000000">CvProgrammingComponent</text>
</g>
<!-- CvProgrammingComponent&#45;&gt;AppModule -->
<g id="edge8" class="edge">
<title>CvProgrammingComponent&#45;&gt;AppModule</title>
<path fill="none" stroke="#000000" d="M2191,-122.0352C2191,-138.7344 2191,-161 2191,-161 2191,-161 1683.091,-161 1683.091,-161"/>
<polygon fill="#000000" stroke="#000000" points="1683.0911,-157.5001 1673.091,-161 1683.091,-164.5001 1683.0911,-157.5001"/>
</g>
<!-- CvSchoolComponent -->
<g id="node9" class="node">
<title>CvSchoolComponent</title>
<polygon fill="#ffffb3" stroke="#000000" points="2085.0575,-122 1948.9425,-122 1948.9425,-86 2085.0575,-86 2085.0575,-122"/>
<text text-anchor="middle" x="2017" y="-99.8" font-family="Times,serif" font-size="14.00" fill="#000000">CvSchoolComponent</text>
</g>
<!-- CvSchoolComponent&#45;&gt;AppModule -->
<g id="edge9" class="edge">
<title>CvSchoolComponent&#45;&gt;AppModule</title>
<path fill="none" stroke="#000000" d="M2017,-122.2819C2017,-137.9478 2017,-158 2017,-158 2017,-158 1682.6755,-158 1682.6755,-158"/>
<polygon fill="#000000" stroke="#000000" points="1682.6755,-154.5001 1672.6755,-158 1682.6755,-161.5001 1682.6755,-154.5001"/>
</g>
<!-- CvStartComponent -->
<g id="node10" class="node">
<title>CvStartComponent</title>
<polygon fill="#ffffb3" stroke="#000000" points="1931.108,-122 1806.892,-122 1806.892,-86 1931.108,-86 1931.108,-122"/>
<text text-anchor="middle" x="1869" y="-99.8" font-family="Times,serif" font-size="14.00" fill="#000000">CvStartComponent</text>
</g>
<!-- CvStartComponent&#45;&gt;AppModule -->
<g id="edge10" class="edge">
<title>CvStartComponent&#45;&gt;AppModule</title>
<path fill="none" stroke="#000000" d="M1869,-122.1243C1869,-136.7832 1869,-155 1869,-155 1869,-155 1682.7288,-155 1682.7288,-155"/>
<polygon fill="#000000" stroke="#000000" points="1682.7288,-151.5001 1672.7288,-155 1682.7287,-158.5001 1682.7288,-151.5001"/>
</g>
<!-- CvTechnologyComponent -->
<g id="node11" class="node">
<title>CvTechnologyComponent</title>
<polygon fill="#ffffb3" stroke="#000000" points="1789.042,-122 1624.958,-122 1624.958,-86 1789.042,-86 1789.042,-122"/>
<text text-anchor="middle" x="1707" y="-99.8" font-family="Times,serif" font-size="14.00" fill="#000000">CvTechnologyComponent</text>
</g>
<!-- CvTechnologyComponent&#45;&gt;AppModule -->
<g id="edge11" class="edge">
<title>CvTechnologyComponent&#45;&gt;AppModule</title>
<path fill="none" stroke="#000000" d="M1648.7788,-122.1061C1648.7788,-122.1061 1648.7788,-140.991 1648.7788,-140.991"/>
<polygon fill="#000000" stroke="#000000" points="1645.2788,-140.9909 1648.7788,-150.991 1652.2788,-140.991 1645.2788,-140.9909"/>
</g>
<!-- FilterToolsPipe -->
<g id="node12" class="node">
<title>FilterToolsPipe</title>
<polygon fill="#ffffb3" stroke="#000000" points="1606.6053,-122 1503.3947,-122 1503.3947,-86 1606.6053,-86 1606.6053,-122"/>
<text text-anchor="middle" x="1555" y="-99.8" font-family="Times,serif" font-size="14.00" fill="#000000">FilterToolsPipe</text>
</g>
<!-- FilterToolsPipe&#45;&gt;AppModule -->
<g id="edge12" class="edge">
<title>FilterToolsPipe&#45;&gt;AppModule</title>
<path fill="none" stroke="#000000" d="M1597.8622,-122.1061C1597.8622,-122.1061 1597.8622,-140.991 1597.8622,-140.991"/>
<polygon fill="#000000" stroke="#000000" points="1594.3623,-140.9909 1597.8622,-150.991 1601.3623,-140.991 1594.3623,-140.9909"/>
</g>
<!-- FooterComponent -->
<g id="node13" class="node">
<title>FooterComponent</title>
<polygon fill="#ffffb3" stroke="#000000" points="1485.8809,-122 1368.1191,-122 1368.1191,-86 1485.8809,-86 1485.8809,-122"/>
<text text-anchor="middle" x="1427" y="-99.8" font-family="Times,serif" font-size="14.00" fill="#000000">FooterComponent</text>
</g>
<!-- FooterComponent&#45;&gt;AppModule -->
<g id="edge13" class="edge">
<title>FooterComponent&#45;&gt;AppModule</title>
<path fill="none" stroke="#000000" d="M1427,-122.1243C1427,-136.7832 1427,-155 1427,-155 1427,-155 1579.2253,-155 1579.2253,-155"/>
<polygon fill="#000000" stroke="#000000" points="1579.2253,-158.5001 1589.2253,-155 1579.2253,-151.5001 1579.2253,-158.5001"/>
</g>
<!-- HomeComponent -->
<g id="node14" class="node">
<title>HomeComponent</title>
<polygon fill="#ffffb3" stroke="#000000" points="1349.5451,-122 1234.4549,-122 1234.4549,-86 1349.5451,-86 1349.5451,-122"/>
<text text-anchor="middle" x="1292" y="-99.8" font-family="Times,serif" font-size="14.00" fill="#000000">HomeComponent</text>
</g>
<!-- HomeComponent&#45;&gt;AppModule -->
<g id="edge14" class="edge">
<title>HomeComponent&#45;&gt;AppModule</title>
<path fill="none" stroke="#000000" d="M1292,-122.2819C1292,-137.9478 1292,-158 1292,-158 1292,-158 1579.0919,-158 1579.0919,-158"/>
<polygon fill="#000000" stroke="#000000" points="1579.092,-161.5001 1589.0919,-158 1579.0919,-154.5001 1579.092,-161.5001"/>
</g>
<!-- InteractiveCvComponent -->
<g id="node15" class="node">
<title>InteractiveCvComponent</title>
<polygon fill="#ffffb3" stroke="#000000" points="1215.5211,-122 1058.4789,-122 1058.4789,-86 1215.5211,-86 1215.5211,-122"/>
<text text-anchor="middle" x="1137" y="-99.8" font-family="Times,serif" font-size="14.00" fill="#000000">InteractiveCvComponent</text>
</g>
<!-- InteractiveCvComponent&#45;&gt;AppModule -->
<g id="edge15" class="edge">
<title>InteractiveCvComponent&#45;&gt;AppModule</title>
<path fill="none" stroke="#000000" d="M1137,-122.0352C1137,-138.7344 1137,-161 1137,-161 1137,-161 1579.3076,-161 1579.3076,-161"/>
<polygon fill="#000000" stroke="#000000" points="1579.3076,-164.5001 1589.3076,-161 1579.3076,-157.5001 1579.3076,-164.5001"/>
</g>
<!-- ModalComponent -->
<g id="node16" class="node">
<title>ModalComponent</title>
<polygon fill="#ffffb3" stroke="#000000" points="1039.8823,-122 922.1177,-122 922.1177,-86 1039.8823,-86 1039.8823,-122"/>
<text text-anchor="middle" x="981" y="-99.8" font-family="Times,serif" font-size="14.00" fill="#000000">ModalComponent</text>
</g>
<!-- ModalComponent&#45;&gt;AppModule -->
<g id="edge16" class="edge">
<title>ModalComponent&#45;&gt;AppModule</title>
<path fill="none" stroke="#000000" d="M981,-122.302C981,-140.2699 981,-165 981,-165 981,-165 1578.8525,-165 1578.8525,-165"/>
<polygon fill="#000000" stroke="#000000" points="1578.8525,-168.5001 1588.8525,-165 1578.8525,-161.5001 1578.8525,-168.5001"/>
</g>
<!-- NavigationComponent -->
<g id="node17" class="node">
<title>NavigationComponent</title>
<polygon fill="#ffffb3" stroke="#000000" points="903.5407,-122 760.4593,-122 760.4593,-86 903.5407,-86 903.5407,-122"/>
<text text-anchor="middle" x="832" y="-99.8" font-family="Times,serif" font-size="14.00" fill="#000000">NavigationComponent</text>
</g>
<!-- NavigationComponent&#45;&gt;AppModule -->
<g id="edge17" class="edge">
<title>NavigationComponent&#45;&gt;AppModule</title>
<path fill="none" stroke="#000000" d="M832,-122.1686C832,-141.0898 832,-168 832,-168 832,-168 1579.1673,-168 1579.1673,-168"/>
<polygon fill="#000000" stroke="#000000" points="1579.1673,-171.5001 1589.1673,-168 1579.1672,-164.5001 1579.1673,-171.5001"/>
</g>
<!-- PicturesComponent -->
<g id="node18" class="node">
<title>PicturesComponent</title>
<polygon fill="#ffffb3" stroke="#000000" points="742.4313,-122 615.5687,-122 615.5687,-86 742.4313,-86 742.4313,-122"/>
<text text-anchor="middle" x="679" y="-99.8" font-family="Times,serif" font-size="14.00" fill="#000000">PicturesComponent</text>
</g>
<!-- PicturesComponent&#45;&gt;AppModule -->
<g id="edge18" class="edge">
<title>PicturesComponent&#45;&gt;AppModule</title>
<path fill="none" stroke="#000000" d="M679,-122.308C679,-142.1455 679,-171 679,-171 679,-171 1579.174,-171 1579.174,-171"/>
<polygon fill="#000000" stroke="#000000" points="1579.174,-174.5001 1589.174,-171 1579.174,-167.5001 1579.174,-174.5001"/>
</g>
<!-- SetsComponent -->
<g id="node19" class="node">
<title>SetsComponent</title>
<polygon fill="#ffffb3" stroke="#000000" points="597.1653,-122 492.8347,-122 492.8347,-86 597.1653,-86 597.1653,-122"/>
<text text-anchor="middle" x="545" y="-99.8" font-family="Times,serif" font-size="14.00" fill="#000000">SetsComponent</text>
</g>
<!-- SetsComponent&#45;&gt;AppModule -->
<g id="edge19" class="edge">
<title>SetsComponent&#45;&gt;AppModule</title>
<path fill="none" stroke="#000000" d="M545,-122.0267C545,-142.7672 545,-174 545,-174 545,-174 1579.0929,-174 1579.0929,-174"/>
<polygon fill="#000000" stroke="#000000" points="1579.093,-177.5001 1589.0929,-174 1579.0929,-170.5001 1579.093,-177.5001"/>
</g>
<!-- TabBarComponent -->
<g id="node20" class="node">
<title>TabBarComponent</title>
<polygon fill="#ffffb3" stroke="#000000" points="474.8118,-122 351.1882,-122 351.1882,-86 474.8118,-86 474.8118,-122"/>
<text text-anchor="middle" x="413" y="-99.8" font-family="Times,serif" font-size="14.00" fill="#000000">TabBarComponent</text>
</g>
<!-- TabBarComponent&#45;&gt;AppModule -->
<g id="edge20" class="edge">
<title>TabBarComponent&#45;&gt;AppModule</title>
<path fill="none" stroke="#000000" d="M413,-122.2921C413,-144.2057 413,-178 413,-178 413,-178 1579.0737,-178 1579.0737,-178"/>
<polygon fill="#000000" stroke="#000000" points="1579.0737,-181.5001 1589.0737,-178 1579.0736,-174.5001 1579.0737,-181.5001"/>
</g>
<!-- WorkComponent -->
<g id="node21" class="node">
<title>WorkComponent</title>
<polygon fill="#ffffb3" stroke="#000000" points="333.7078,-122 220.2922,-122 220.2922,-86 333.7078,-86 333.7078,-122"/>
<text text-anchor="middle" x="277" y="-99.8" font-family="Times,serif" font-size="14.00" fill="#000000">WorkComponent</text>
</g>
<!-- WorkComponent&#45;&gt;AppModule -->
<g id="edge21" class="edge">
<title>WorkComponent&#45;&gt;AppModule</title>
<path fill="none" stroke="#000000" d="M277,-122.2479C277,-145.0179 277,-181 277,-181 277,-181 1578.9927,-181 1578.9927,-181"/>
<polygon fill="#000000" stroke="#000000" points="1578.9928,-184.5001 1588.9927,-181 1578.9927,-177.5001 1578.9928,-184.5001"/>
</g>
<!-- AppComponent  -->
<g id="node23" class="node">
<title>AppComponent </title>
<polygon fill="#80b1d3" stroke="#000000" points="1685.439,-252 1576.561,-252 1576.561,-216 1685.439,-216 1685.439,-252"/>
<text text-anchor="middle" x="1631" y="-229.8" font-family="Times,serif" font-size="14.00" fill="#000000">AppComponent </text>
</g>
<!-- AppModule&#45;&gt;AppComponent  -->
<g id="edge22" class="edge">
<title>AppModule&#45;&gt;AppComponent </title>
<path fill="none" stroke="#000000" stroke-dasharray="1,5" d="M1631,-187.1061C1631,-187.1061 1631,-205.991 1631,-205.991"/>
<polygon fill="#000000" stroke="#000000" points="1627.5001,-205.9909 1631,-215.991 1634.5001,-205.991 1627.5001,-205.9909"/>
</g>
<!-- DialogFlowService -->
<g id="node24" class="node">
<title>DialogFlowService</title>
<ellipse fill="#fdb462" stroke="#000000" cx="110" cy="-104" rx="86.2522" ry="18"/>
<text text-anchor="middle" x="110" y="-99.8" font-family="Times,serif" font-size="14.00" fill="#000000">DialogFlowService</text>
</g>
<!-- DialogFlowService&#45;&gt;AppModule -->
<g id="edge23" class="edge">
<title>DialogFlowService&#45;&gt;AppModule</title>
<path fill="none" stroke="#000000" d="M110,-122.1532C110,-145.7566 110,-184 110,-184 110,-184 1579.1311,-184 1579.1311,-184"/>
<polygon fill="#000000" stroke="#000000" points="1579.1311,-187.5001 1589.1311,-184 1579.131,-180.5001 1579.1311,-187.5001"/>
</g>
</g>
</svg>
