<?xml version="1.0" encoding="UTF-8" standalone="no"?>
<!DOCTYPE svg PUBLIC "-//W3C//DTD SVG 1.1//EN"
 "http://www.w3.org/Graphics/SVG/1.1/DTD/svg11.dtd">
<!-- Generated by graphviz version 2.40.1 (20161225.0304)
 -->
<!-- Title: dependencies Pages: 1 -->
<svg width="2967pt" height="284pt"
 viewBox="0.00 0.00 2967.00 284.00" xmlns="http://www.w3.org/2000/svg" xmlns:xlink="http://www.w3.org/1999/xlink">
<g id="graph0" class="graph" transform="scale(1 1) rotate(0) translate(4 280)">
<title>dependencies</title>
<polygon fill="#ffffff" stroke="transparent" points="-4,4 -4,-280 2963,-280 2963,4 -4,4"/>
<text text-anchor="start" x="1458.5091" y="-42.4" font-family="sans-serif" font-weight="bold" font-size="14.00" fill="#000000">Legend</text>
<polygon fill="#ffffb3" stroke="transparent" points="1245.5,-10 1245.5,-30 1265.5,-30 1265.5,-10 1245.5,-10"/>
<text text-anchor="start" x="1269.129" y="-15.4" font-family="sans-serif" font-size="14.00" fill="#000000"> &#160;Declarations</text>
<polygon fill="#8dd3c7" stroke="transparent" points="1358.5,-10 1358.5,-30 1378.5,-30 1378.5,-10 1358.5,-10"/>
<text text-anchor="start" x="1382.2251" y="-15.4" font-family="sans-serif" font-size="14.00" fill="#000000"> &#160;Module</text>
<polygon fill="#80b1d3" stroke="transparent" points="1444.5,-10 1444.5,-30 1464.5,-30 1464.5,-10 1444.5,-10"/>
<text text-anchor="start" x="1468.2812" y="-15.4" font-family="sans-serif" font-size="14.00" fill="#000000"> &#160;Bootstrap</text>
<polygon fill="#fdb462" stroke="transparent" points="1541.5,-10 1541.5,-30 1561.5,-30 1561.5,-10 1541.5,-10"/>
<text text-anchor="start" x="1565.1732" y="-15.4" font-family="sans-serif" font-size="14.00" fill="#000000"> &#160;Providers</text>
<polygon fill="#fb8072" stroke="transparent" points="1637.5,-10 1637.5,-30 1657.5,-30 1657.5,-10 1637.5,-10"/>
<text text-anchor="start" x="1661.2258" y="-15.4" font-family="sans-serif" font-size="14.00" fill="#000000"> &#160;Exports</text>
<g id="clust1" class="cluster">
<title>cluster_AppModule</title>
<polygon fill="none" stroke="#000000" stroke-dasharray="1,5" points="8,-70 8,-268 2951,-268 2951,-70 8,-70"/>
</g>
<g id="clust2" class="cluster">
<title>cluster_AppModule_declarations</title>
<polygon fill="none" stroke="#000000" points="16,-78 16,-130 2943,-130 2943,-78 16,-78"/>
</g>
<g id="clust25" class="cluster">
<title>cluster_AppModule_bootstrap</title>
<polygon fill="none" stroke="#000000" points="1409,-208 1409,-260 1533,-260 1533,-208 1409,-208"/>
</g>
<!-- AboutComponent -->
<g id="node1" class="node">
<title>AboutComponent</title>
<polygon fill="#ffffb3" stroke="#000000" points="2935.3301,-122 2818.6699,-122 2818.6699,-86 2935.3301,-86 2935.3301,-122"/>
<text text-anchor="middle" x="2877" y="-99.8" font-family="Times,serif" font-size="14.00" fill="#000000">AboutComponent</text>
</g>
<!-- AppModule -->
<g id="node21" class="node">
<title>AppModule</title>
<polygon fill="#8dd3c7" stroke="#000000" points="1512.6571,-187 1509.6571,-191 1488.6571,-191 1485.6571,-187 1429.3429,-187 1429.3429,-151 1512.6571,-151 1512.6571,-187"/>
<text text-anchor="middle" x="1471" y="-164.8" font-family="Times,serif" font-size="14.00" fill="#000000">AppModule</text>
</g>
<!-- AboutComponent&#45;&gt;AppModule -->
<g id="edge1" class="edge">
<title>AboutComponent&#45;&gt;AppModule</title>
<path fill="none" stroke="#000000" d="M2877,-122.1532C2877,-145.7566 2877,-184 2877,-184 2877,-184 1522.6973,-184 1522.6973,-184"/>
<polygon fill="#000000" stroke="#000000" points="1522.6974,-180.5001 1512.6973,-184 1522.6973,-187.5001 1522.6974,-180.5001"/>
</g>
<!-- AppComponent -->
<g id="node2" class="node">
<title>AppComponent</title>
<polygon fill="#ffffb3" stroke="#000000" points="2800.9399,-122 2695.0601,-122 2695.0601,-86 2800.9399,-86 2800.9399,-122"/>
<text text-anchor="middle" x="2748" y="-99.8" font-family="Times,serif" font-size="14.00" fill="#000000">AppComponent</text>
</g>
<!-- AppComponent&#45;&gt;AppModule -->
<g id="edge2" class="edge">
<title>AppComponent&#45;&gt;AppModule</title>
<path fill="none" stroke="#000000" d="M2748,-122.0109C2748,-144.4852 2748,-180 2748,-180 2748,-180 1522.7621,-180 1522.7621,-180"/>
<polygon fill="#000000" stroke="#000000" points="1522.7621,-176.5001 1512.7621,-180 1522.762,-183.5001 1522.7621,-176.5001"/>
</g>
<!-- BlogComponent -->
<g id="node3" class="node">
<title>BlogComponent</title>
<polygon fill="#ffffb3" stroke="#000000" points="2677.0605,-122 2568.9395,-122 2568.9395,-86 2677.0605,-86 2677.0605,-122"/>
<text text-anchor="middle" x="2623" y="-99.8" font-family="Times,serif" font-size="14.00" fill="#000000">BlogComponent</text>
</g>
<!-- BlogComponent&#45;&gt;AppModule -->
<g id="edge3" class="edge">
<title>BlogComponent&#45;&gt;AppModule</title>
<path fill="none" stroke="#000000" d="M2623,-122.0449C2623,-143.6623 2623,-177 2623,-177 2623,-177 1522.6809,-177 1522.6809,-177"/>
<polygon fill="#000000" stroke="#000000" points="1522.6809,-173.5001 1512.6809,-177 1522.6808,-180.5001 1522.6809,-173.5001"/>
</g>
<!-- ChatComponent -->
<g id="node4" class="node">
<title>ChatComponent</title>
<polygon fill="#ffffb3" stroke="#000000" points="2550.7744,-122 2443.2256,-122 2443.2256,-86 2550.7744,-86 2550.7744,-122"/>
<text text-anchor="middle" x="2497" y="-99.8" font-family="Times,serif" font-size="14.00" fill="#000000">ChatComponent</text>
</g>
<!-- ChatComponent&#45;&gt;AppModule -->
<g id="edge4" class="edge">
<title>ChatComponent&#45;&gt;AppModule</title>
<path fill="none" stroke="#000000" d="M2497,-122.1289C2497,-142.5724 2497,-173 2497,-173 2497,-173 1522.8116,-173 1522.8116,-173"/>
<polygon fill="#000000" stroke="#000000" points="1522.8117,-169.5001 1512.8116,-173 1522.8116,-176.5001 1522.8117,-169.5001"/>
</g>
<!-- CvEndComponent -->
<g id="node5" class="node">
<title>CvEndComponent</title>
<polygon fill="#ffffb3" stroke="#000000" points="2425.2218,-122 2304.7782,-122 2304.7782,-86 2425.2218,-86 2425.2218,-122"/>
<text text-anchor="middle" x="2365" y="-99.8" font-family="Times,serif" font-size="14.00" fill="#000000">CvEndComponent</text>
</g>
<!-- CvEndComponent&#45;&gt;AppModule -->
<g id="edge5" class="edge">
<title>CvEndComponent&#45;&gt;AppModule</title>
<path fill="none" stroke="#000000" d="M2365,-122.1061C2365,-141.3391 2365,-169 2365,-169 2365,-169 1522.9204,-169 1522.9204,-169"/>
<polygon fill="#000000" stroke="#000000" points="1522.9204,-165.5001 1512.9204,-169 1522.9203,-172.5001 1522.9204,-165.5001"/>
</g>
<!-- CvExperienceComponent -->
<g id="node6" class="node">
<title>CvExperienceComponent</title>
<polygon fill="#ffffb3" stroke="#000000" points="2287.1316,-122 2126.8684,-122 2126.8684,-86 2287.1316,-86 2287.1316,-122"/>
<text text-anchor="middle" x="2207" y="-99.8" font-family="Times,serif" font-size="14.00" fill="#000000">CvExperienceComponent</text>
</g>
<!-- CvExperienceComponent&#45;&gt;AppModule -->
<g id="edge6" class="edge">
<title>CvExperienceComponent&#45;&gt;AppModule</title>
<path fill="none" stroke="#000000" d="M2207,-122.2667C2207,-140.5552 2207,-166 2207,-166 2207,-166 1522.6793,-166 1522.6793,-166"/>
<polygon fill="#000000" stroke="#000000" points="1522.6794,-162.5001 1512.6793,-166 1522.6793,-169.5001 1522.6794,-162.5001"/>
</g>
<!-- CvGoalsComponent -->
<g id="node7" class="node">
<title>CvGoalsComponent</title>
<polygon fill="#ffffb3" stroke="#000000" points="2109.3258,-122 1978.6742,-122 1978.6742,-86 2109.3258,-86 2109.3258,-122"/>
<text text-anchor="middle" x="2044" y="-99.8" font-family="Times,serif" font-size="14.00" fill="#000000">CvGoalsComponent</text>
</g>
<!-- CvGoalsComponent&#45;&gt;AppModule -->
<g id="edge7" class="edge">
<title>CvGoalsComponent&#45;&gt;AppModule</title>
<path fill="none" stroke="#000000" d="M2044,-122.0336C2044,-139.0597 2044,-162 2044,-162 2044,-162 1522.6703,-162 1522.6703,-162"/>
<polygon fill="#000000" stroke="#000000" points="1522.6703,-158.5001 1512.6703,-162 1522.6703,-165.5001 1522.6703,-158.5001"/>
</g>
<!-- CvProgrammingComponent -->
<g id="node8" class="node">
<title>CvProgrammingComponent</title>
<polygon fill="#ffffb3" stroke="#000000" points="1961.1595,-122 1786.8405,-122 1786.8405,-86 1961.1595,-86 1961.1595,-122"/>
<text text-anchor="middle" x="1874" y="-99.8" font-family="Times,serif" font-size="14.00" fill="#000000">CvProgrammingComponent</text>
</g>
<!-- CvProgrammingComponent&#45;&gt;AppModule -->
<g id="edge8" class="edge">
<title>CvProgrammingComponent&#45;&gt;AppModule</title>
<path fill="none" stroke="#000000" d="M1874,-122.0091C1874,-138.0494 1874,-159 1874,-159 1874,-159 1522.9876,-159 1522.9876,-159"/>
<polygon fill="#000000" stroke="#000000" points="1522.9876,-155.5001 1512.9876,-159 1522.9876,-162.5001 1522.9876,-155.5001"/>
</g>
<!-- CvSchoolComponent -->
<g id="node9" class="node">
<title>CvSchoolComponent</title>
<polygon fill="#ffffb3" stroke="#000000" points="1768.0575,-122 1631.9425,-122 1631.9425,-86 1768.0575,-86 1768.0575,-122"/>
<text text-anchor="middle" x="1700" y="-99.8" font-family="Times,serif" font-size="14.00" fill="#000000">CvSchoolComponent</text>
</g>
<!-- CvSchoolComponent&#45;&gt;AppModule -->
<g id="edge9" class="edge">
<title>CvSchoolComponent&#45;&gt;AppModule</title>
<path fill="none" stroke="#000000" d="M1700,-122.1243C1700,-136.7832 1700,-155 1700,-155 1700,-155 1522.7359,-155 1522.7359,-155"/>
<polygon fill="#000000" stroke="#000000" points="1522.7359,-151.5001 1512.7359,-155 1522.7358,-158.5001 1522.7359,-151.5001"/>
</g>
<!-- CvStartComponent -->
<g id="node10" class="node">
<title>CvStartComponent</title>
<polygon fill="#ffffb3" stroke="#000000" points="1614.108,-122 1489.892,-122 1489.892,-86 1614.108,-86 1614.108,-122"/>
<text text-anchor="middle" x="1552" y="-99.8" font-family="Times,serif" font-size="14.00" fill="#000000">CvStartComponent</text>
</g>
<!-- CvStartComponent&#45;&gt;AppModule -->
<g id="edge10" class="edge">
<title>CvStartComponent&#45;&gt;AppModule</title>
<path fill="none" stroke="#000000" d="M1501.3871,-122.1061C1501.3871,-122.1061 1501.3871,-140.991 1501.3871,-140.991"/>
<polygon fill="#000000" stroke="#000000" points="1497.8872,-140.9909 1501.3871,-150.991 1504.8872,-140.991 1497.8872,-140.9909"/>
</g>
<!-- CvTechnologyComponent -->
<g id="node11" class="node">
<title>CvTechnologyComponent</title>
<polygon fill="#ffffb3" stroke="#000000" points="1472.042,-122 1307.958,-122 1307.958,-86 1472.042,-86 1472.042,-122"/>
<text text-anchor="middle" x="1390" y="-99.8" font-family="Times,serif" font-size="14.00" fill="#000000">CvTechnologyComponent</text>
</g>
<!-- CvTechnologyComponent&#45;&gt;AppModule -->
<g id="edge11" class="edge">
<title>CvTechnologyComponent&#45;&gt;AppModule</title>
<path fill="none" stroke="#000000" d="M1450.7213,-122.1061C1450.7213,-122.1061 1450.7213,-140.991 1450.7213,-140.991"/>
<polygon fill="#000000" stroke="#000000" points="1447.2213,-140.9909 1450.7213,-150.991 1454.2213,-140.991 1447.2213,-140.9909"/>
</g>
<!-- FooterComponent -->
<g id="node12" class="node">
<title>FooterComponent</title>
<polygon fill="#ffffb3" stroke="#000000" points="1289.8809,-122 1172.1191,-122 1172.1191,-86 1289.8809,-86 1289.8809,-122"/>
<text text-anchor="middle" x="1231" y="-99.8" font-family="Times,serif" font-size="14.00" fill="#000000">FooterComponent</text>
</g>
<!-- FooterComponent&#45;&gt;AppModule -->
<g id="edge12" class="edge">
<title>FooterComponent&#45;&gt;AppModule</title>
<path fill="none" stroke="#000000" d="M1231,-122.1243C1231,-136.7832 1231,-155 1231,-155 1231,-155 1419.1952,-155 1419.1952,-155"/>
<polygon fill="#000000" stroke="#000000" points="1419.1952,-158.5001 1429.1952,-155 1419.1952,-151.5001 1419.1952,-158.5001"/>
</g>
<!-- HomeComponent -->
<g id="node13" class="node">
<title>HomeComponent</title>
<polygon fill="#ffffb3" stroke="#000000" points="1153.5451,-122 1038.4549,-122 1038.4549,-86 1153.5451,-86 1153.5451,-122"/>
<text text-anchor="middle" x="1096" y="-99.8" font-family="Times,serif" font-size="14.00" fill="#000000">HomeComponent</text>
</g>
<!-- HomeComponent&#45;&gt;AppModule -->
<g id="edge13" class="edge">
<title>HomeComponent&#45;&gt;AppModule</title>
<path fill="none" stroke="#000000" d="M1096,-122.0091C1096,-138.0494 1096,-159 1096,-159 1096,-159 1419.0743,-159 1419.0743,-159"/>
<polygon fill="#000000" stroke="#000000" points="1419.0743,-162.5001 1429.0743,-159 1419.0743,-155.5001 1419.0743,-162.5001"/>
</g>
<!-- InteractiveCvComponent -->
<g id="node14" class="node">
<title>InteractiveCvComponent</title>
<polygon fill="#ffffb3" stroke="#000000" points="1019.5211,-122 862.4789,-122 862.4789,-86 1019.5211,-86 1019.5211,-122"/>
<text text-anchor="middle" x="941" y="-99.8" font-family="Times,serif" font-size="14.00" fill="#000000">InteractiveCvComponent</text>
</g>
<!-- InteractiveCvComponent&#45;&gt;AppModule -->
<g id="edge14" class="edge">
<title>InteractiveCvComponent&#45;&gt;AppModule</title>
<path fill="none" stroke="#000000" d="M941,-122.0336C941,-139.0597 941,-162 941,-162 941,-162 1418.9688,-162 1418.9688,-162"/>
<polygon fill="#000000" stroke="#000000" points="1418.9688,-165.5001 1428.9688,-162 1418.9687,-158.5001 1418.9688,-165.5001"/>
</g>
<!-- ModalComponent -->
<g id="node15" class="node">
<title>ModalComponent</title>
<polygon fill="#ffffb3" stroke="#000000" points="843.8823,-122 726.1177,-122 726.1177,-86 843.8823,-86 843.8823,-122"/>
<text text-anchor="middle" x="785" y="-99.8" font-family="Times,serif" font-size="14.00" fill="#000000">ModalComponent</text>
</g>
<!-- ModalComponent&#45;&gt;AppModule -->
<g id="edge15" class="edge">
<title>ModalComponent&#45;&gt;AppModule</title>
<path fill="none" stroke="#000000" d="M785,-122.2667C785,-140.5552 785,-166 785,-166 785,-166 1419.1203,-166 1419.1203,-166"/>
<polygon fill="#000000" stroke="#000000" points="1419.1203,-169.5001 1429.1203,-166 1419.1202,-162.5001 1419.1203,-169.5001"/>
</g>
<!-- NavigationComponent -->
<g id="node16" class="node">
<title>NavigationComponent</title>
<polygon fill="#ffffb3" stroke="#000000" points="707.5407,-122 564.4593,-122 564.4593,-86 707.5407,-86 707.5407,-122"/>
<text text-anchor="middle" x="636" y="-99.8" font-family="Times,serif" font-size="14.00" fill="#000000">NavigationComponent</text>
</g>
<!-- NavigationComponent&#45;&gt;AppModule -->
<g id="edge16" class="edge">
<title>NavigationComponent&#45;&gt;AppModule</title>
<path fill="none" stroke="#000000" d="M636,-122.1061C636,-141.3391 636,-169 636,-169 636,-169 1419.3065,-169 1419.3065,-169"/>
<polygon fill="#000000" stroke="#000000" points="1419.3066,-172.5001 1429.3065,-169 1419.3065,-165.5001 1419.3066,-172.5001"/>
</g>
<!-- PicturesComponent -->
<g id="node17" class="node">
<title>PicturesComponent</title>
<polygon fill="#ffffb3" stroke="#000000" points="546.4313,-122 419.5687,-122 419.5687,-86 546.4313,-86 546.4313,-122"/>
<text text-anchor="middle" x="483" y="-99.8" font-family="Times,serif" font-size="14.00" fill="#000000">PicturesComponent</text>
</g>
<!-- PicturesComponent&#45;&gt;AppModule -->
<g id="edge17" class="edge">
<title>PicturesComponent&#45;&gt;AppModule</title>
<path fill="none" stroke="#000000" d="M483,-122.1289C483,-142.5724 483,-173 483,-173 483,-173 1419.1779,-173 1419.1779,-173"/>
<polygon fill="#000000" stroke="#000000" points="1419.178,-176.5001 1429.1779,-173 1419.1779,-169.5001 1419.178,-176.5001"/>
</g>
<!-- SetsComponent -->
<g id="node18" class="node">
<title>SetsComponent</title>
<polygon fill="#ffffb3" stroke="#000000" points="401.1653,-122 296.8347,-122 296.8347,-86 401.1653,-86 401.1653,-122"/>
<text text-anchor="middle" x="349" y="-99.8" font-family="Times,serif" font-size="14.00" fill="#000000">SetsComponent</text>
</g>
<!-- SetsComponent&#45;&gt;AppModule -->
<g id="edge18" class="edge">
<title>SetsComponent&#45;&gt;AppModule</title>
<path fill="none" stroke="#000000" d="M349,-122.0449C349,-143.6623 349,-177 349,-177 349,-177 1419.064,-177 1419.064,-177"/>
<polygon fill="#000000" stroke="#000000" points="1419.0641,-180.5001 1429.064,-177 1419.064,-173.5001 1419.0641,-180.5001"/>
</g>
<!-- TabBarComponent -->
<g id="node19" class="node">
<title>TabBarComponent</title>
<polygon fill="#ffffb3" stroke="#000000" points="278.8118,-122 155.1882,-122 155.1882,-86 278.8118,-86 278.8118,-122"/>
<text text-anchor="middle" x="217" y="-99.8" font-family="Times,serif" font-size="14.00" fill="#000000">TabBarComponent</text>
</g>
<!-- TabBarComponent&#45;&gt;AppModule -->
<g id="edge19" class="edge">
<title>TabBarComponent&#45;&gt;AppModule</title>
<path fill="none" stroke="#000000" d="M217,-122.0109C217,-144.4852 217,-180 217,-180 217,-180 1419.2772,-180 1419.2772,-180"/>
<polygon fill="#000000" stroke="#000000" points="1419.2772,-183.5001 1429.2772,-180 1419.2771,-176.5001 1419.2772,-183.5001"/>
</g>
<!-- WorkComponent -->
<g id="node20" class="node">
<title>WorkComponent</title>
<polygon fill="#ffffb3" stroke="#000000" points="137.7078,-122 24.2922,-122 24.2922,-86 137.7078,-86 137.7078,-122"/>
<text text-anchor="middle" x="81" y="-99.8" font-family="Times,serif" font-size="14.00" fill="#000000">WorkComponent</text>
</g>
<!-- WorkComponent&#45;&gt;AppModule -->
<g id="edge20" class="edge">
<title>WorkComponent&#45;&gt;AppModule</title>
<path fill="none" stroke="#000000" d="M81,-122.1532C81,-145.7566 81,-184 81,-184 81,-184 1419.0214,-184 1419.0214,-184"/>
<polygon fill="#000000" stroke="#000000" points="1419.0214,-187.5001 1429.0214,-184 1419.0213,-180.5001 1419.0214,-187.5001"/>
</g>
<!-- AppComponent  -->
<g id="node22" class="node">
<title>AppComponent </title>
<polygon fill="#80b1d3" stroke="#000000" points="1525.439,-252 1416.561,-252 1416.561,-216 1525.439,-216 1525.439,-252"/>
<text text-anchor="middle" x="1471" y="-229.8" font-family="Times,serif" font-size="14.00" fill="#000000">AppComponent </text>
</g>
<!-- AppModule&#45;&gt;AppComponent  -->
<g id="edge21" class="edge">
<title>AppModule&#45;&gt;AppComponent </title>
<path fill="none" stroke="#000000" stroke-dasharray="1,5" d="M1471,-187.1061C1471,-187.1061 1471,-205.991 1471,-205.991"/>
<polygon fill="#000000" stroke="#000000" points="1467.5001,-205.9909 1471,-215.991 1474.5001,-205.991 1467.5001,-205.9909"/>
</g>
</g>
</svg>
